<svg width="35" height="35" viewBox="0 0 35 35" fill="none" xmlns="http://www.w3.org/2000/svg">
<path d="M13.9497 3.19108V4.69622H10.1009V0.0341797H13.9497V1.68369H11.7505V3.19108H13.9497ZM17.9061 1.68369H19.4437V0.0341797H15.5945C15.5945 0.0341797 15.5945 0.862149 15.5945 1.68369C16.1095 2.19864 16.378 2.44515 17.1227 3.18992C16.6874 3.18992 15.5945 3.19136 15.5945 3.19136V4.69622H19.4437V3.19108L17.9061 1.68369ZM23.3616 1.68369H24.899V0.0341797H21.0499C21.0499 0.0341797 21.0499 0.862149 21.0499 1.68369C21.5647 2.19864 21.8334 2.44515 22.5781 3.18992C22.143 3.18992 21.0499 3.19136 21.0499 3.19136V4.69622H24.899V3.19108L23.3616 1.68369ZM29.9684 6.91188L27.6303 32.2381L17.5 34.9656L7.36937 32.2381L5.03162 6.91188H29.9684ZM25.2572 12.0615H17.4908H9.58708L9.96504 15.1199H17.4908H17.9135L17.4908 15.2958L10.2401 18.3157L10.4806 21.3051L17.4908 21.3279L21.248 21.3398L21.0073 25.3259L17.4908 26.316V26.3129L17.4619 26.3208L14.0656 25.4635L13.8595 22.9892H13.8483H10.6979H10.6868L11.0992 27.7659L17.4908 29.6559V29.6525L17.5023 29.6559L23.8597 27.8003L24.6846 18.3158H17.4908H17.473L17.4908 18.3081L24.9478 15.1199L25.2572 12.0615Z" fill="black"/>
</svg>
