<svg width="75" height="75" viewBox="0 0 75 75" fill="none" xmlns="http://www.w3.org/2000/svg">
<path d="M29.8922 6.83804V10.0633H21.6448V0.0732422H29.8922V3.60791H25.1795V6.83804H29.8922ZM38.3703 3.60791H41.665V0.0732422H33.4167C33.4167 0.0732422 33.4167 1.84746 33.4167 3.60791C34.5202 4.71138 35.0956 5.2396 36.6916 6.83555C35.7586 6.83555 33.4167 6.83862 33.4167 6.83862V10.0633H41.665V6.83804L38.3703 3.60791ZM50.0604 3.60791H53.3549V0.0732422H45.1069C45.1069 0.0732422 45.1069 1.84746 45.1069 3.60791C46.2101 4.71138 46.7858 5.2396 48.3816 6.83555C47.4492 6.83555 45.1069 6.83862 45.1069 6.83862V10.0633H53.355V6.83804L50.0604 3.60791ZM64.218 14.8112L59.2078 69.0816L37.4998 74.9263L15.7915 69.0816L10.782 14.8112H64.218ZM54.1226 25.8461H37.4802H20.5437L21.3536 32.3997H37.4802H38.3861L37.4802 32.7768L21.9431 39.248L22.4584 45.6538L37.4802 45.7025L45.5314 45.7282L45.0157 54.2698L37.4802 56.3915V56.3848L37.4184 56.4018L30.1405 54.5645L29.6988 49.2625H29.6748H22.9241H22.9003L23.7839 59.4983L37.4802 63.5484V63.5411L37.5048 63.5484L51.1279 59.572L52.8955 39.2481H37.4802H37.4421L37.4802 39.2317L53.4596 32.3999L54.1226 25.8461Z" fill="black"/>
</svg>
