<svg width="75" height="75" viewBox="0 0 75 75" fill="none" xmlns="http://www.w3.org/2000/svg">
<path d="M48.4969 28.6568C43.6125 28.6568 39.6539 32.6154 39.6539 37.4998C39.6539 42.3842 43.6125 46.3428 48.4969 46.3428H48.7828C53.6672 46.3428 57.6258 42.3842 57.6258 37.4998C57.6258 32.6154 53.6672 28.6568 48.7828 28.6568H48.4969ZM48.7828 50.6506H48.4969C41.2336 50.6506 35.3461 44.7631 35.3461 37.4998C35.3461 30.2365 41.2336 24.349 48.4969 24.349H48.7828C56.0461 24.349 61.9336 30.2365 61.9336 37.4998C61.9336 44.7631 56.0461 50.6506 48.7828 50.6506ZM26.2172 50.6506C21.3328 50.6506 17.3719 54.6092 17.3719 59.4936C17.3719 64.3779 21.3305 68.3365 26.2148 68.3365C26.2406 68.3365 26.2687 68.3365 26.2945 68.3365H26.2898C26.2969 68.3365 26.3062 68.3365 26.3156 68.3365C31.2867 68.3365 35.3227 64.3193 35.3484 59.3529V50.6506H26.2172ZM26.2875 72.6467C26.257 72.6467 26.2195 72.6467 26.182 72.6467C18.9187 72.6467 13.0312 66.7592 13.0312 59.4959C13.0312 52.2326 18.9187 46.3451 26.182 46.3451C26.1937 46.3451 26.2055 46.3451 26.2172 46.3451H39.6539V59.3529C39.6258 66.7006 33.6609 72.6467 26.3109 72.6467C26.3039 72.6467 26.2969 72.6467 26.2898 72.6467H26.2875ZM26.2172 28.6568C21.3328 28.6568 17.3742 32.6154 17.3742 37.4998C17.3742 42.3842 21.3328 46.3451 26.2172 46.3451L35.3461 46.3428V28.6592L26.2172 28.6568ZM39.6516 50.6506H26.2172C18.9539 50.6506 13.0664 44.7631 13.0664 37.4998C13.0664 30.2365 18.9539 24.349 26.2172 24.349H39.6539V50.6506H39.6516ZM26.2172 6.66309C21.3328 6.66309 17.3742 10.6217 17.3742 15.5061C17.3742 20.3904 21.3328 24.349 26.2172 24.349H35.3461V6.66074L26.2172 6.66309ZM39.6516 28.6568H26.2172C18.9539 28.6568 13.0641 22.7693 13.0641 15.5037C13.0641 8.23809 18.9516 2.35059 26.2172 2.35059H39.6539V28.6545L39.6516 28.6568ZM39.6516 24.349H48.7828C53.6578 24.3373 57.6023 20.3834 57.6023 15.5061C57.6023 10.6287 53.6555 6.6748 48.7805 6.66309H39.6516V24.349ZM48.7828 28.6568L35.3461 28.6592V2.35293H48.7828C56.0461 2.35293 61.9359 8.24043 61.9359 15.5061C61.9359 22.7717 56.0484 28.6568 48.7828 28.6568Z" fill="black"/>
</svg>
