<svg width="35" height="35" viewBox="0 0 35 35" fill="none" xmlns="http://www.w3.org/2000/svg">
<path d="M7.42858 0.0341797H9.00303V1.58977H10.4433V0.0341797H12.0179V4.74476H10.4434V3.16729H9.00317V4.74476H7.42872V0.0341797H7.42858ZM14.0883 1.59633H12.7023V0.0341797H17.0495V1.59633H15.6629V4.74476H14.0884V1.59633H14.0883ZM17.7394 0.0341797H19.3814L20.3912 1.68937L21.4001 0.0341797H23.0423V4.74476H21.4742V2.41001L20.3911 4.08481H20.3641L19.2802 2.41001V4.74476H17.7394V0.0341797ZM23.826 0.0341797H25.4009V3.1878H27.6151V4.74476H23.826V0.0341797ZM5.1261 6.89917L7.37827 32.1602L17.4848 34.9657L27.6193 32.1562L29.8739 6.8991L5.1261 6.89917ZM25.176 12.8939L25.035 14.4646L24.9731 15.161H24.9629H17.5H17.4892H13.1172L13.4004 18.3334H17.4892H17.5H23.8561H24.691L24.6154 19.1654L23.8874 27.3221L23.8408 27.8452L17.5 29.6026V29.6032L17.4858 29.6072L11.1394 27.8453L10.7052 22.9808H12.1387H13.8154L14.036 25.4517L17.4864 26.3836L17.4892 26.3827V26.3824L20.9449 25.45L21.3042 21.4318H17.5H17.4892H10.5669L9.80543 12.8939L9.73126 12.0628H17.4892H17.5H25.2502L25.176 12.8939Z" fill="black"/>
</svg>
