<svg width="75" height="75" viewBox="0 0 75 75" fill="none" xmlns="http://www.w3.org/2000/svg">
<path d="M15.9183 0.0732422H19.2921V3.40664H22.3784V0.0732422H25.7525V10.1673H22.3787V6.78706H19.2924V10.1673H15.9186V0.0732422H15.9183ZM30.1891 3.4207H27.2191V0.0732422H36.5346V3.4207H33.5632V10.1673H30.1894V3.4207H30.1891ZM38.0129 0.0732422H41.5315L43.6952 3.62007L45.8572 0.0732422H49.3762V10.1673H46.0161V5.16431L43.6951 8.75317H43.6372L41.3145 5.16431V10.1673H38.0129V0.0732422ZM51.0556 0.0732422H54.4303V6.83101H59.1751V10.1673H51.0556V0.0732422ZM10.9844 14.7839L15.8104 68.9147L37.4673 74.9265L59.1842 68.9061L64.0154 14.7838L10.9844 14.7839ZM53.9485 27.6297L53.6463 30.9955L53.5136 32.4879H53.4918H37.5H37.4768H28.1083L28.715 39.2858H37.4768H37.5H51.1201H52.9092L52.7472 41.0688L51.1872 58.5473L51.0873 59.6682L37.5 63.4342V63.4354L37.4695 63.444L23.87 59.6685L22.9397 49.2445H26.0115H29.6043L30.077 54.5394L37.4707 56.5362L37.4768 56.5343V56.5337L44.8817 54.5357L45.6518 45.9252H37.5H37.4768H22.6432L21.0115 27.6297L20.8526 25.8489H37.4768H37.5H54.1075L53.9485 27.6297Z" fill="black"/>
</svg>
