<svg width="75" height="75" viewBox="0 0 75 75" fill="none" xmlns="http://www.w3.org/2000/svg">
<g clip-path="url(#clip0_2342_35)">
<path d="M0 8.20312C0 3.67266 3.67267 0 8.20312 0H66.7969C71.3273 0 75 3.67267 75 8.20312V17.5781C75 19.5197 73.4259 21.0938 71.4844 21.0938C69.5428 21.0938 67.9688 19.5197 67.9688 17.5781V8.20312C67.9688 7.55592 67.4442 7.03125 66.7969 7.03125H8.20312C7.55592 7.03125 7.03125 7.55592 7.03125 8.20312V66.7969C7.03125 67.4442 7.55592 67.9688 8.20312 67.9688H71.4844C73.4259 67.9688 75 69.5428 75 71.4844C75 73.4259 73.4259 75 71.4844 75H8.20312C3.67266 75 0 71.3273 0 66.7969V8.20312ZM38.6719 26.9531C40.6135 26.9531 42.1875 28.5271 42.1875 30.4688V49.2188C42.1875 53.9287 40.8937 57.4612 38.2272 59.6831C35.6823 61.8037 32.5961 62.1094 30.4688 62.1094C28.5271 62.1094 26.9531 60.5353 26.9531 58.5938C26.9531 56.6522 28.5271 55.0781 30.4688 55.0781C32.0914 55.0781 33.1067 54.7978 33.7259 54.2817C34.2234 53.8669 35.1562 52.7119 35.1562 49.2188V30.4688C35.1562 28.5271 36.7302 26.9531 38.6719 26.9531ZM52.8548 30.8443C54.8175 28.5077 57.8939 26.9531 62.1094 26.9531C66.023 26.9531 68.9756 28.2922 70.9659 30.3975C72.2995 31.8086 72.2367 34.0337 70.8258 35.3674C69.4148 36.7012 67.1897 36.6385 65.8561 35.2275C65.3409 34.6827 64.3144 33.9844 62.1094 33.9844C59.7623 33.9844 58.7372 34.7736 58.2389 35.3667C57.6253 36.0968 57.4219 37.0125 57.4219 37.5C57.4219 37.9875 57.6253 38.9032 58.2389 39.6333C58.7372 40.2264 59.7623 41.0156 62.1094 41.0156C62.4642 41.0156 62.8069 41.0682 63.1294 41.166C66.2377 41.6084 68.587 42.9961 70.192 44.9068C72.0394 47.1061 72.6562 49.7063 72.6562 51.5625C72.6562 53.4187 72.0394 56.0189 70.192 58.2183C68.2294 60.555 65.153 62.1094 60.9375 62.1094C57.0239 62.1094 54.0713 60.7702 52.0809 58.665C50.7473 57.2541 50.8102 55.0289 52.2211 53.6948C53.632 52.3612 55.8572 52.4241 57.1908 53.835C57.7059 54.3797 58.7325 55.0781 60.9375 55.0781C63.2845 55.0781 64.3097 54.2888 64.808 53.6958C65.4216 52.9655 65.625 52.05 65.625 51.5625C65.625 51.075 65.4216 50.1595 64.808 49.4292C64.3097 48.8362 63.2845 48.0469 60.9375 48.0469C60.5827 48.0469 60.24 47.9944 59.9175 47.8964C56.8092 47.4539 54.4598 46.0664 52.8548 44.1557C51.0075 41.9562 50.3906 39.3562 50.3906 37.5C50.3906 35.6438 51.0075 33.0438 52.8548 30.8443Z" fill="black"/>
</g>
<defs>
<clipPath id="clip0_2342_35">
<rect width="75" height="75" fill="white"/>
</clipPath>
</defs>
</svg>
