<svg width="35" height="35" viewBox="0 0 35 35" fill="none" xmlns="http://www.w3.org/2000/svg">
<g clip-path="url(#clip0_2342_35)">
<path d="M0 3.82812C0 1.71391 1.71391 0 3.82812 0H31.1719C33.2861 0 35 1.71391 35 3.82812V8.20312C35 9.10921 34.2654 9.84375 33.3594 9.84375C32.4533 9.84375 31.7188 9.10921 31.7188 8.20312V3.82812C31.7188 3.5261 31.474 3.28125 31.1719 3.28125H3.82812C3.5261 3.28125 3.28125 3.5261 3.28125 3.82812V31.1719C3.28125 31.474 3.5261 31.7188 3.82812 31.7188H33.3594C34.2654 31.7188 35 32.4533 35 33.3594C35 34.2654 34.2654 35 33.3594 35H3.82812C1.71391 35 0 33.2861 0 31.1719V3.82812ZM18.0469 12.5781C18.953 12.5781 19.6875 13.3127 19.6875 14.2188V22.9688C19.6875 25.1667 19.0837 26.8152 17.8394 27.8521C16.6518 28.8417 15.2115 28.9844 14.2188 28.9844C13.3127 28.9844 12.5781 28.2498 12.5781 27.3438C12.5781 26.4377 13.3127 25.7031 14.2188 25.7031C14.976 25.7031 15.4498 25.5723 15.7388 25.3315C15.9709 25.1379 16.4062 24.5989 16.4062 22.9688V14.2188C16.4062 13.3127 17.1408 12.5781 18.0469 12.5781ZM24.6656 14.394C25.5815 13.3036 27.0172 12.5781 28.9844 12.5781C30.8107 12.5781 32.1886 13.203 33.1174 14.1855C33.7398 14.844 33.7105 15.8824 33.052 16.5048C32.3936 17.1272 31.3552 17.098 30.7328 16.4395C30.4924 16.1853 30.0134 15.8594 28.9844 15.8594C27.8891 15.8594 27.4107 16.2277 27.1782 16.5044C26.8918 16.8452 26.7969 17.2725 26.7969 17.5C26.7969 17.7275 26.8918 18.1548 27.1782 18.4956C27.4107 18.7723 27.8891 19.1406 28.9844 19.1406C29.15 19.1406 29.3099 19.1651 29.4604 19.2108C30.9109 19.4173 32.0073 20.0649 32.7563 20.9565C33.6184 21.9828 33.9062 23.1963 33.9062 24.0625C33.9062 24.9287 33.6184 26.1422 32.7563 27.1685C31.8404 28.259 30.4047 28.9844 28.4375 28.9844C26.6112 28.9844 25.2333 28.3594 24.3044 27.377C23.6821 26.7186 23.7114 25.6802 24.3698 25.0576C25.0283 24.4352 26.0667 24.4646 26.689 25.123C26.9294 25.3772 27.4085 25.7031 28.4375 25.7031C29.5328 25.7031 30.0112 25.3348 30.2437 25.058C30.5301 24.7172 30.625 24.29 30.625 24.0625C30.625 23.835 30.5301 23.4078 30.2437 23.067C30.0112 22.7902 29.5328 22.4219 28.4375 22.4219C28.2719 22.4219 28.112 22.3974 27.9615 22.3517C26.511 22.1452 25.4146 21.4976 24.6656 20.606C23.8035 19.5795 23.5156 18.3662 23.5156 17.5C23.5156 16.6338 23.8035 15.4205 24.6656 14.394Z" fill="black"/>
</g>
<defs>
<clipPath id="clip0_2342_35">
<rect width="35" height="35" fill="white"/>
</clipPath>
</defs>
</svg>
